<?xml version="1.0" encoding="utf-8"?>
<!-- Generator: Adobe Illustrator 24.1.0, SVG Export Plug-In . SVG Version: 6.00 Build 0)  -->
<svg version="1.1" id="Layer_1" xmlns="http://www.w3.org/2000/svg" xmlns:xlink="http://www.w3.org/1999/xlink" x="0px" y="0px"
	 viewBox="0 0 1364.5 271.5" style="enable-background:new 0 0 1364.5 271.5;" xml:space="preserve">
<style type="text/css">
	.st0{fill:#798296;}
	.st1{fill:#818CF8;}
</style>
<g id="Layer_2_1_">
	<g id="Layer_2-2">
		<path class="st0" d="M451.3,50.5V77h-44.6v146h-27.5V77h-43.4V50.5H451.3z"/>
		<path class="st0" d="M558.9,122.8V223h-26.6v-14.5c-4.2,4.7-9.2,8.7-14.7,11.7c-6.6,3.7-14,5.5-21.6,5.3c-9,0.2-17.9-1.9-25.8-6
			c-7.6-4.1-13.9-10.3-18-17.9c-4.4-7.9-6.6-17.5-6.6-28.7c0-10.9,2.3-20.5,6.9-28.8c8.6-16.1,25.4-26.1,43.6-26
			c16.3,0,28.4,6,36.5,18l1.9-13.5L558.9,122.8z M521.8,198.3c5-3.7,8.5-9,10.5-15.8v-21.8c-1.8-6.1-5.7-11.4-11-14.9
			c-5.5-3.8-12.1-5.8-18.8-5.7c-8-0.1-15.8,3.1-21.3,8.9c-5.8,5.9-8.8,13.5-8.8,22.6c-0.1,11.4,5.8,22.1,15.6,28
			c4.6,2.8,10,4.3,15.4,4.3C510.7,203.8,516.8,202,521.8,198.3z"/>
		<path class="st0" d="M660,222.5c-6.2,2.1-12.7,3.2-19.3,3.2c-11.1,0-20.8-2.1-29.3-6.4c-8.2-4-15-10.4-19.6-18.4
			c-4.6-8-6.9-17.3-6.9-28.1c0-10.6,2.4-19.9,7.3-27.9c4.7-7.8,11.5-14.2,19.6-18.4c8.1-4.3,17.1-6.5,26.2-6.4
			c15.8,0,28.8,4.3,39.1,12.8l-13.3,17.3c-3.2-2.5-6.8-4.5-10.5-6c-4.1-1.7-8.5-2.5-12.9-2.5c-7.8-0.1-15.3,3.1-20.5,8.9
			c-5.6,5.9-8.4,13.3-8.4,22.2c0,8.9,3,16.2,8.9,22.2c5.9,5.9,13.5,8.9,22.6,8.9c7.9,0,14.5-2.2,19.9-6.6l13.3,16.6
			C671.4,217.7,665.9,220.6,660,222.5z"/>
		<path class="st0" d="M789.9,126.9c6.2,5.6,9.4,12.8,9.6,21.7V223H773v-64.9c-0.3-5.2-1.9-9.3-4.6-12.3c-2.8-3-6.9-4.6-12.5-4.7
			c-8.2,0-15,3.6-20.3,10.7c-5.3,7.1-7.9,16-7.9,26.8V223h-26.5V38.2h26.1v101.7c3.8-6.5,9.2-11.8,15.8-15.5
			c6.7-3.9,14.6-5.8,23.6-5.8C775.9,118.5,783.7,121.3,789.9,126.9z"/>
		<path class="st0" d="M837.2,76.9c2.9-2.7,6.7-4.1,10.7-4.2c3.8,0,7.5,1.5,10.3,4.2c3,2.5,4.7,6.2,4.6,10.1c0,3.8-1.7,7.5-4.6,10
			c-2.8,2.6-6.5,4-10.3,4c-3.9,0-7.7-1.4-10.7-4c-3-2.4-4.8-6.1-4.7-10C832.4,83.1,834.2,79.4,837.2,76.9z M860.2,122.8V223h-26.6
			V122.8H860.2z"/>
		<path class="st0" d="M993.4,122.8l-64.7,148.4h-26.1l23.5-52.4l-46.5-96h29.9l29.9,66.4l29.9-66.4L993.4,122.8z"/>
		<path class="st0" d="M1008,144.6c4.8-8.2,11.7-14.9,20-19.3c8.5-4.7,18.3-7,29.2-7c10.9,0,20.6,2.3,29,7
			c8.2,4.4,15,11.1,19.6,19.2c9.2,17.1,9.2,37.6,0,54.8c-4.6,8.1-11.4,14.8-19.6,19.3c-8.5,4.7-18.2,7.1-29.3,7.1
			c-10,0.2-19.9-2.1-28.9-6.5c-8.4-4.2-15.3-10.7-20-18.7c-4.8-8.1-7.2-17.7-7.2-28.6C1000.6,162.3,1003.1,152.9,1008,144.6z
			 M1035.8,194.7c5.2,5.9,12.7,9.3,20.6,9.1c8.5,0,15.5-3,21-9c5.4-6,8.2-13.6,8.2-22.8c0-9.2-2.7-16.8-8.2-22.9
			c-5.5-6.1-12.4-9.1-21-9.1c-7.9-0.1-15.5,3.3-20.6,9.4c-5.5,6.2-8.5,14.3-8.3,22.6C1027.5,181.1,1030.3,188.6,1035.8,194.7z"/>
		<path class="st0" d="M1291.7,126.6c5.8,5.5,8.8,12.8,9.1,21.8V223h-26.3v-64.5c-0.3-5.4-1.5-9.5-3.6-12.4
			c-2.1-2.9-5.5-4.5-10.2-4.9c-8.2,0-14.9,3.7-19.9,11c-5.1,7.3-7.7,15.9-7.8,25.7v45h-26.8v-64.5c-0.3-5.2-1.5-9.3-3.7-12.3
			c-2.1-3-5.7-4.7-10.5-5c-5.2-0.1-10.3,1.8-14.2,5.2c-4.3,3.7-7.6,8.5-9.6,13.8c-2.3,5.6-3.5,11.7-3.4,17.8v45h-26.6V122.8h23.9
			l2.1,17.5c3.5-6.8,8.8-12.5,15.4-16.4c6.8-3.9,14.5-5.8,22.3-5.7c8.1,0,14.8,1.8,20.3,5.3c5.4,3.5,9.3,9,10.8,15.3
			c3.9-6.3,9.3-11.5,15.7-15.2c6-3.5,12.7-5.4,19.7-5.5C1278.2,118.3,1286,121,1291.7,126.6z"/>
		<path class="st0" d="M1338.5,76.9c2.9-2.7,6.7-4.2,10.7-4.2c3.8,0,7.5,1.5,10.3,4.2c3,2.5,4.7,6.2,4.6,10.1c0,3.8-1.7,7.5-4.6,10
			c-2.8,2.6-6.5,4-10.3,4c-3.9,0-7.7-1.4-10.7-4c-3-2.4-4.8-6.1-4.7-10C1333.8,83.1,1335.5,79.4,1338.5,76.9z M1361.5,122.8V223
			H1335V122.8H1361.5z"/>
	</g>
</g>
<g transform="translate(0.000000,0.000000) scale(0.013200,-0.013200)">
	<path class="st1" d="M9765.5-339.4l-1626.7-26.7l70.9-870.9c35.7-470.9,70.9-1057.6,70.9-1306.7V-2988H4636.4H992.2l26.7-1590.9
		l26.7-1590.9l595.7,62.4c1350.9,124.3,9022.4,160,12995.7,62.4c2275.7-62.4,4195.7-124.3,4266.7-142.4
		c115.7-35.7,133.3,177.6,133.3,1582.4v1617.6l-3404.3-35.7c-1866.7-17.6-3537.6,0-3715.7,26.7l-310.9,62.4l26.7,1333.3
		c26.7,1137.6,9.1,1324.3-106.7,1306.7C11454-304.2,10663.1-330.9,9765.5-339.4z"/>
	<path class="st1" d="M4725.5-7175.2c-1137.6-444.3-1422.4-595.7-1404.3-720c9.1-89.1,195.7-649.1,417.6-1244.3
		c515.7-1360,1102.4-3413.3,1475.7-5137.6c160-729.1,302.4-1342.4,310.9-1360c17.6-17.6,737.6,222.4,1617.6,533.3l1590.9,560
		l-106.7,533.3C8316.4-12517,6423.1-6579.4,6254-6597C6192.2-6606.1,5507.4-6864.2,4725.5-7175.2z"/>
	<path class="st1" d="M13045.5-8072.8c-924.3-3706.7-2035.7-7395.7-2409.1-8009.1l-169.1-275.7l-1537.6-26.7
		c-1777.6-26.7-8115.7,80-8382.4,142.4c-169.1,44.3-177.6,0-177.6-1600v-1653.3l444.3,53.3c249.1,26.7,4604.3,80,9689.1,106.7
		l9244.3,62.4v1564.3v1564.3l-755.7-62.4c-417.6-26.7-1733.3-62.4-2924.3-62.4c-1697.6-9.1-2150.9,17.6-2115.7,106.7
		c26.7,53.3,195.7,444.3,373.3,862.4c578.1,1351.5,2631.5,7671.5,2524.8,7769.1c-35.7,35.7-2897.6,835.7-3244.3,915.7
		C13427.4-6579.4,13392.2-6677.6,13045.5-8072.8z"/>
</g>
</svg>
