<svg width="200" height="200" viewBox="0 0 200 200" fill="none" xmlns="http://www.w3.org/2000/svg">
<g clip-path="url(#clip0_1_10)">
<g clip-path="url(#clip1_1_10)">
<path d="M64.0578 66.1567L58.2244 72.1849L61.6647 75.108C63.5153 76.6981 65.7869 78.7129 66.6968 79.6228L68.3197 81.2458L55.0327 94.5329L41.7456 107.82L47.6548 113.535L53.564 119.249L55.5081 116.849C59.9796 111.47 87.8194 83.369 102.663 69.2387C111.188 61.1693 118.414 54.395 118.739 54.2026C119.292 53.9112 118.577 53.0676 113.445 47.9357L107.535 42.0263L95.2539 54.5689C88.5123 61.4391 82.3557 67.467 81.6088 68.0191L80.2472 68.9248L75.4735 63.9567C71.4149 59.7036 70.6688 59.0859 70.3111 59.5721C70.0856 59.8716 67.2993 62.8528 64.0578 66.1567Z" fill="black"/>
<path d="M70.654 109.505C68.1292 115.275 67.6442 116.867 68.1643 117.255C68.5227 117.547 71.2491 118.913 74.2324 120.278C81.081 123.366 90.7212 128.728 98.3814 133.666C101.628 135.746 104.388 137.467 104.483 137.501C104.612 137.501 106.36 133.999 108.433 129.654L112.188 121.808L109.85 120.249C103.261 115.927 74.6671 101.139 74.115 101.82C73.9226 102.078 72.3688 105.518 70.654 109.505Z" fill="black"/>
<path d="M104.268 82.4489C114.439 99.3599 123.863 116.889 124.743 120.491L125.134 122.115L119.625 127.818C113.241 134.397 89.7427 157.116 88.5425 157.86C87.7643 158.315 87.8949 158.508 93.74 164.353L99.7799 170.393L101.205 168.578C102.016 167.573 117.7 151.499 136.142 132.862L169.619 98.9293L163.904 93.2147L158.189 87.5002L155.662 90.4836C154.237 92.1036 149.57 97.0313 145.228 101.373C139.072 107.596 137.321 109.152 137.124 108.698C137.027 108.406 136.215 106.361 135.335 104.186C132.506 97.1411 116.904 66.5666 116.159 66.5989C115.898 66.5987 102.541 74.1106 100.985 75.0823C100.205 75.6012 100.435 76.0881 104.268 82.4489Z" fill="black"/>
</g>
<g clip-path="url(#clip2_1_10)">
<path d="M-36.3006 165.896L-42.134 171.924L-38.6937 174.847C-36.8431 176.437 -34.5715 178.452 -33.6616 179.362L-32.0387 180.985L-45.3257 194.272L-58.6128 207.559L-52.7036 213.274L-46.7944 218.989L-44.8503 216.589C-40.3788 211.209 -12.539 183.108 2.30439 168.978C10.8297 160.909 18.0561 154.134 18.3809 153.942C18.9335 153.651 18.2183 152.807 13.0863 147.675L7.17695 141.766L-5.10454 154.308C-11.8461 161.178 -18.0027 167.206 -18.7496 167.758L-20.1112 168.664L-24.8849 163.696C-28.9435 159.443 -29.6896 158.825 -30.0473 159.311C-30.2728 159.611 -33.0591 162.592 -36.3006 165.896Z" fill="black"/>
<path d="M-29.7044 209.244C-32.2292 215.015 -32.7142 216.606 -32.1941 216.994C-31.8357 217.287 -29.1093 218.652 -26.126 220.017C-19.2773 223.105 -9.63718 228.467 -1.97696 233.405C1.2698 235.485 4.02961 237.207 4.12502 237.24C4.25348 237.24 6.00185 233.738 8.07446 229.394L11.8293 221.547L9.49199 219.988C2.90293 215.666 -25.6913 200.878 -26.2434 201.559C-26.4358 201.818 -27.9896 205.257 -29.7044 209.244Z" fill="black"/>
<path d="M3.90953 182.188C14.0807 199.099 23.5051 216.628 24.3845 220.23L24.7754 221.854L19.2667 227.557C12.8829 234.136 -10.6157 256.855 -11.8159 257.6C-12.5941 258.054 -12.4635 258.247 -6.6184 264.092L-0.578491 270.132L0.846478 268.318C1.65716 267.312 17.3415 251.238 35.7833 232.601L69.2601 198.669L63.5456 192.954L57.8311 187.24L55.3036 190.223C53.8785 191.843 49.2118 196.771 44.8697 201.113C38.7133 207.335 36.963 208.891 36.766 208.437C36.6684 208.145 35.8566 206.1 34.9767 203.925C32.1474 196.88 16.5459 166.306 15.8004 166.338C15.5396 166.338 2.18265 173.85 0.626438 174.822C-0.153579 175.341 0.0765794 175.827 3.90953 182.188Z" fill="black"/>
</g>
<g clip-path="url(#clip3_1_10)">
<path d="M-36.3006 -34.104L-42.134 -28.0757L-38.6937 -25.1527C-36.8431 -23.5626 -34.5715 -21.5477 -33.6616 -20.6378L-32.0387 -19.0149L-45.3257 -5.7278L-58.6128 7.55927L-52.7036 13.274L-46.7944 18.9887L-44.8503 16.5887C-40.3788 11.2092 -12.539 -16.8917 2.30439 -31.022C10.8297 -39.0914 18.0561 -45.8657 18.3809 -46.0581C18.9335 -46.3495 18.2183 -47.193 13.0863 -52.325L7.17695 -58.2344L-5.10454 -45.6918C-11.8461 -38.8216 -18.0027 -32.7937 -18.7496 -32.2416L-20.1112 -31.3359L-24.8849 -36.304C-28.9435 -40.5571 -29.6896 -41.1748 -30.0473 -40.6886C-30.2728 -40.389 -33.0591 -37.4079 -36.3006 -34.104Z" fill="black"/>
<path d="M-29.7044 9.24405C-32.2292 15.0147 -32.7142 16.6065 -32.1941 16.9943C-31.8357 17.2866 -29.1093 18.6518 -26.126 20.0173C-19.2773 23.1052 -9.63718 28.4674 -1.97696 33.4052C1.2698 35.4853 4.02961 37.2067 4.12502 37.2399C4.25348 37.24 6.00185 33.7381 8.07446 29.3937L11.8293 21.5474L9.49199 19.9879C2.90293 15.6662 -25.6913 0.878259 -26.2434 1.55897C-26.4358 1.81766 -27.9896 5.25746 -29.7044 9.24405Z" fill="black"/>
<path d="M3.90953 -17.8118C14.0807 -0.900803 23.5051 16.6284 24.3845 20.2302L24.7754 21.8539L19.2667 27.5575C12.8829 34.136 -10.6157 56.8553 -11.8159 57.5996C-12.5941 58.0543 -12.4635 58.2472 -6.6184 64.0922L-0.578491 70.1321L0.846478 68.3175C1.65716 67.312 17.3415 51.238 35.7833 32.6013L69.2601 -1.33143L63.5456 -7.04596L57.8311 -12.7605L55.3036 -9.77711C53.8785 -8.15711 49.2118 -3.22938 44.8697 1.11278C38.7133 7.33539 36.963 8.89083 36.766 8.43711C36.6684 8.14505 35.8566 6.10049 34.9767 3.92544C32.1474 -3.11958 16.5459 -33.6941 15.8004 -33.6617C15.5396 -33.662 2.18265 -26.1501 0.626438 -25.1784C-0.153579 -24.6595 0.0765794 -24.1726 3.90953 -17.8118Z" fill="black"/>
</g>
<g clip-path="url(#clip4_1_10)">
<path d="M163.278 165.764L157.444 171.792L160.885 174.715C162.735 176.305 165.007 178.32 165.917 179.23L167.54 180.853L154.253 194.14L140.966 207.427L146.875 213.142L152.784 218.857L154.728 216.457C159.2 211.077 187.039 182.976 201.883 168.846C210.408 160.777 217.635 154.002 217.959 153.81C218.512 153.518 217.797 152.675 212.665 147.543L206.755 141.634L194.474 154.176C187.732 161.046 181.576 167.074 180.829 167.626L179.467 168.532L174.694 163.564C170.635 159.311 169.889 158.693 169.531 159.179C169.306 159.479 166.519 162.46 163.278 165.764Z" fill="black"/>
<path d="M169.874 209.112C167.349 214.883 166.864 216.474 167.384 216.862C167.743 217.154 170.469 218.52 173.452 219.885C180.301 222.973 189.941 228.335 197.602 233.273C200.848 235.353 203.608 237.075 203.704 237.108C203.832 237.108 205.58 233.606 207.653 229.262L211.408 221.415L209.07 219.856C202.481 215.534 173.887 200.746 173.335 201.427C173.143 201.685 171.589 205.125 169.874 209.112Z" fill="black"/>
<path d="M203.488 182.056C213.659 198.967 223.084 216.496 223.963 220.098L224.354 221.722L218.845 227.425C212.461 234.004 188.963 256.723 187.763 257.467C186.984 257.922 187.115 258.115 192.96 263.96L199 270L200.425 268.185C201.236 267.18 216.92 251.106 235.362 232.469L268.839 198.536L263.124 192.822L257.41 187.107L254.882 190.091C253.457 191.711 248.79 196.638 244.448 200.981C238.292 207.203 236.542 208.759 236.344 208.305C236.247 208.013 235.435 205.968 234.555 203.793C231.726 196.748 216.124 166.174 215.379 166.206C215.118 166.206 201.761 173.718 200.205 174.689C199.425 175.208 199.655 175.695 203.488 182.056Z" fill="black"/>
</g>
<g clip-path="url(#clip5_1_10)">
<path d="M163.699 -34.104L157.866 -28.0757L161.306 -25.1527C163.157 -23.5626 165.428 -21.5477 166.338 -20.6378L167.961 -19.0149L154.674 -5.7278L141.387 7.55927L147.296 13.274L153.206 18.9887L155.15 16.5887C159.621 11.2092 187.461 -16.8917 202.304 -31.022C210.83 -39.0914 218.056 -45.8657 218.381 -46.0581C218.933 -46.3495 218.218 -47.193 213.086 -52.325L207.177 -58.2344L194.895 -45.6918C188.154 -38.8216 181.997 -32.7937 181.25 -32.2416L179.889 -31.3359L175.115 -36.304C171.057 -40.5571 170.31 -41.1748 169.953 -40.6886C169.727 -40.389 166.941 -37.4079 163.699 -34.104Z" fill="black"/>
<path d="M170.296 9.24405C167.771 15.0147 167.286 16.6065 167.806 16.9943C168.164 17.2866 170.891 18.6518 173.874 20.0173C180.723 23.1052 190.363 28.4674 198.023 33.4052C201.27 35.4853 204.03 37.2067 204.125 37.2399C204.253 37.24 206.002 33.7381 208.074 29.3937L211.829 21.5474L209.492 19.9879C202.903 15.6662 174.309 0.878259 173.757 1.55897C173.564 1.81766 172.01 5.25746 170.296 9.24405Z" fill="black"/>
<path d="M203.91 -17.8118C214.081 -0.900803 223.505 16.6284 224.384 20.2302L224.775 21.8539L219.267 27.5575C212.883 34.136 189.384 56.8553 188.184 57.5996C187.406 58.0543 187.537 58.2472 193.382 64.0922L199.422 70.1321L200.846 68.3175C201.657 67.312 217.341 51.238 235.783 32.6013L269.26 -1.33143L263.546 -7.04596L257.831 -12.7605L255.304 -9.77711C253.878 -8.15711 249.212 -3.22938 244.87 1.11278C238.713 7.33539 236.963 8.89083 236.766 8.43711C236.668 8.14505 235.857 6.10049 234.977 3.92544C232.147 -3.11958 216.546 -33.6941 215.8 -33.6617C215.54 -33.662 202.183 -26.1501 200.626 -25.1784C199.846 -24.6595 200.077 -24.1726 203.91 -17.8118Z" fill="black"/>
</g>
</g>
<defs>
<clipPath id="clip0_1_10">
<rect width="200" height="200" fill="white"/>
</clipPath>
<clipPath id="clip1_1_10">
<rect width="100" height="99.8047" fill="white" transform="translate(29.3584 99.9714) rotate(-45)"/>
</clipPath>
<clipPath id="clip2_1_10">
<rect width="100" height="99.8047" fill="white" transform="translate(-71 199.711) rotate(-45)"/>
</clipPath>
<clipPath id="clip3_1_10">
<rect width="100" height="99.8047" fill="white" transform="translate(-71 -0.289307) rotate(-45)"/>
</clipPath>
<clipPath id="clip4_1_10">
<rect width="100" height="99.8047" fill="white" transform="translate(129 199.711) rotate(-45)"/>
</clipPath>
<clipPath id="clip5_1_10">
<rect width="100" height="99.8047" fill="white" transform="translate(129 -0.289307) rotate(-45)"/>
</clipPath>
</defs>
</svg>
